<svg width="423" height="408" viewBox="0 0 423 408" fill="none" xmlns="http://www.w3.org/2000/svg">
<g filter="url(#filter0_b)">
<rect x="35" y="70.9113" width="295" height="207.089" rx="103.544" fill="white" fill-opacity="0.01"/>
</g>
<rect x="35" y="70.9113" width="295" height="207.089" rx="103.544" fill="white" fill-opacity="0.5"/>
<g filter="url(#filter1_d)">
<path fill-rule="evenodd" clip-rule="evenodd" d="M70.5625 254.958C88.1752 268.82 110.396 277.089 134.548 277.089H226.342C283.528 277.089 329.887 230.73 329.887 173.544C329.887 116.358 283.528 70 226.342 70H224.697C281.003 70 326.647 115.644 326.647 171.95C326.647 228.255 281.003 273.899 224.697 273.899H129.766C107.689 273.899 87.2523 266.883 70.5625 254.958Z" fill="#C4C4C4" fill-opacity="0.01"/>
</g>
<path fill-rule="evenodd" clip-rule="evenodd" d="M226.456 278C283.642 278 330 231.642 330 174.456C330 117.27 283.642 70.9113 226.456 70.9113L197.777 70.9113C197.75 70.9113 197.723 70.9113 197.697 70.9113H151.914C151.914 70.9113 151.914 70.9113 151.914 70.9113H197.777C254.926 70.9547 301.241 117.296 301.241 174.456C301.241 231.642 254.883 278 197.697 278H226.456Z" fill="white"/>
<path fill-rule="evenodd" clip-rule="evenodd" d="M109.471 103.762C110.41 103.762 111.171 103.038 111.171 102.145C111.171 101.252 110.41 100.528 109.471 100.528C108.532 100.528 107.77 101.252 107.77 102.145C107.77 103.038 108.532 103.762 109.471 103.762ZM124.774 157.113V152.263H126.475V150.646H124.774L121.374 140.946H119.673V134.479H121.374V132.862H119.673L109.471 103.762L99.2684 132.862H97.568V134.479H99.2684V140.946H97.568L94.1672 150.646H92.4668V152.263H94.1672V157.113H92.4668V165.113V181.447V189.447L95.8669 189.447H103.867H115.073H123.073V186.213H115.073H103.867H95.8676V181.447V165.113V160.346H103.867H115.073H123.073V157.113H123.074V165.113V181.447V189.447H126.475V181.447V165.113V157.113H124.774ZM124.774 157.113V157.113H123.074V157.113H124.774ZM95.8676 157.113V160.346H95.8669V157.113H95.8676ZM95.8676 157.113V157.113H103.867H115.073H123.073V157.113H109.471H95.8676ZM95.8676 186.213V189.447L95.8669 189.447V186.213H95.8676ZM95.8669 157.113H94.1672V157.113H95.8669V157.113ZM100.969 136.096V139.329H102.669V136.096H100.969ZM97.5684 153.879H100.969V155.496H97.5684V153.879ZM104.371 153.879H107.771V155.496H104.371V153.879ZM114.572 153.879H111.172V155.496H114.572V153.879ZM117.974 153.879H121.375V155.496H117.974V153.879ZM106.07 139.329V136.096H107.771V139.329H106.07ZM111.172 136.096V139.329H112.872V136.096H111.172ZM116.272 139.329V136.096H117.972V139.329H116.272ZM100.969 145.879V149.029H104.369V145.879C104.369 144.94 103.608 144.179 102.669 144.179C101.73 144.179 100.969 144.94 100.969 145.879ZM107.77 149.029V145.879C107.77 144.94 108.531 144.179 109.47 144.179C110.41 144.179 111.171 144.94 111.171 145.879V149.029H107.77ZM114.572 145.879V149.029H117.973V145.879C117.973 144.94 117.212 144.179 116.273 144.179C115.333 144.179 114.572 144.94 114.572 145.879ZM100.119 194.296H101.819V226.63H100.119V194.296ZM110.321 194.296H108.62V226.63H110.321V194.296ZM117.124 194.296H118.824V226.63H117.124V194.296ZM109.471 189.447H94.1669V231.481L92.4668 231.481V234.715H126.475V231.481L124.774 231.481V189.447H109.471Z" fill="#004B8D"/>
<path d="M117.824 173.28C117.824 177.591 114.132 181.172 109.471 181.172C104.81 181.172 101.119 177.591 101.119 173.28C101.119 168.968 104.81 165.388 109.471 165.388C114.132 165.388 117.824 168.968 117.824 173.28Z" stroke="#004B8D" stroke-width="2"/>
<rect x="109.047" y="162.367" width="0.850197" height="2.42506" fill="#004B8D"/>
<rect x="109.047" y="168.429" width="0.850197" height="4.44592" fill="#004B8D"/>
<rect width="0.829547" height="2.90341" transform="matrix(-0.724714 0.68905 -0.724714 -0.68905 112.178 175.281)" fill="#004B8D"/>
<rect x="109.047" y="181.768" width="0.850197" height="2.42503" fill="#004B8D"/>
<rect x="118.398" y="173.684" width="0.808365" height="2.5506" transform="rotate(-90 118.398 173.684)" fill="#004B8D"/>
<rect x="97.9941" y="173.684" width="0.808365" height="2.5506" transform="rotate(-90 97.9941 173.684)" fill="#004B8D"/>
<path d="M117.373 165.231L117.974 165.802L116.171 167.517L115.57 166.946L117.373 165.231Z" fill="#004B8D"/>
<path d="M103.197 179.342L103.798 179.914L101.995 181.629L101.394 181.057L103.197 179.342Z" fill="#004B8D"/>
<path d="M101.395 165.768L101.996 165.197L103.799 166.911L103.198 167.483L101.395 165.768Z" fill="#004B8D"/>
<path d="M115.422 179.51L116.023 178.939L117.827 180.653L117.225 181.225L115.422 179.51Z" fill="#004B8D"/>
<mask id="path-17-inside-1" fill="white">
<ellipse cx="109.469" cy="173.28" rx="0.850208" ry="0.808331"/>
</mask>
<path d="M109.32 173.28C109.32 173.21 109.351 173.156 109.382 173.127C109.411 173.099 109.444 173.088 109.469 173.088V175.088C110.443 175.088 111.32 174.326 111.32 173.28H109.32ZM109.469 173.088C109.494 173.088 109.528 173.099 109.557 173.127C109.588 173.156 109.619 173.21 109.619 173.28H107.619C107.619 174.326 108.496 175.088 109.469 175.088V173.088ZM109.619 173.28C109.619 173.35 109.588 173.404 109.557 173.433C109.528 173.461 109.494 173.472 109.469 173.472V171.472C108.496 171.472 107.619 172.234 107.619 173.28H109.619ZM109.469 173.472C109.444 173.472 109.411 173.461 109.382 173.433C109.351 173.404 109.32 173.35 109.32 173.28H111.32C111.32 172.234 110.443 171.472 109.469 171.472V173.472Z" fill="#004B8D" mask="url(#path-17-inside-1)"/>
<path d="M109.469 167.217L110.32 168.43H108.619L109.469 167.217Z" fill="#004B8D"/>
<path d="M112.778 176.424L111.275 176.138L112.477 174.995L112.778 176.424Z" fill="#004B8D"/>
<path d="M120.374 173.28C120.374 178.931 115.541 183.597 109.471 183.597C103.402 183.597 98.5684 178.931 98.5684 173.28C98.5684 167.629 103.402 162.963 109.471 162.963C115.541 162.963 120.374 167.629 120.374 173.28Z" stroke="#004B8D" stroke-width="2"/>
<path d="M140.17 125.918H144.811L148.375 140.929L152.797 125.918H156.714L161.186 140.929L164.717 125.918H169.358L163.792 149.433H159.27L154.713 134.231L150.241 149.433H145.769L140.17 125.918Z" fill="#004B8D"/>
<path d="M184.741 125.327C188.239 125.327 191.242 126.531 193.753 128.94C196.275 131.348 197.536 134.284 197.536 137.748C197.536 141.179 196.292 144.083 193.804 146.46C191.327 148.836 188.317 150.024 184.775 150.024C181.065 150.024 177.983 148.804 175.528 146.364C173.073 143.923 171.846 141.025 171.846 137.668C171.846 135.419 172.418 133.352 173.561 131.465C174.704 129.579 176.273 128.087 178.268 126.989C180.275 125.881 182.432 125.327 184.741 125.327ZM184.691 129.707C182.404 129.707 180.482 130.464 178.924 131.977C177.366 133.49 176.587 135.414 176.587 137.748C176.587 140.348 177.568 142.405 179.529 143.918C181.054 145.101 182.802 145.692 184.775 145.692C187.006 145.692 188.905 144.925 190.475 143.39C192.044 141.856 192.829 139.964 192.829 137.716C192.829 135.478 192.038 133.586 190.458 132.041C188.877 130.485 186.955 129.707 184.691 129.707Z" fill="#004B8D"/>
<path d="M202.294 125.918H207.288C210.023 125.918 211.967 126.153 213.122 126.622C214.288 127.08 215.223 127.847 215.93 128.924C216.636 130 216.989 131.273 216.989 132.744C216.989 134.289 216.597 135.584 215.812 136.629C215.039 137.662 213.867 138.446 212.298 138.978L218.149 149.433H213.004L207.439 139.474H207.002V149.433H202.294V125.918ZM207.002 135.11H208.481C209.983 135.11 211.015 134.924 211.575 134.551C212.147 134.178 212.432 133.559 212.432 132.696C212.432 132.185 212.292 131.742 212.012 131.369C211.732 130.986 211.356 130.714 210.886 130.554C210.415 130.384 209.552 130.298 208.296 130.298H207.002V135.11Z" fill="#004B8D"/>
<path d="M221.949 125.918H226.656V145.165H233.516V149.433H221.949V125.918Z" fill="#004B8D"/>
<path d="M237.131 125.918H242.713C246.311 125.918 248.984 126.345 250.733 127.197C252.481 128.039 253.921 129.414 255.053 131.321C256.186 133.229 256.752 135.456 256.752 138.003C256.752 139.815 256.432 141.483 255.793 143.007C255.166 144.52 254.291 145.778 253.17 146.779C252.061 147.781 250.856 148.474 249.556 148.857C248.255 149.241 246.002 149.433 242.797 149.433H237.131V125.918ZM241.822 130.234V145.053H244.007C246.159 145.053 247.717 144.818 248.681 144.35C249.657 143.881 250.452 143.092 251.069 141.984C251.685 140.875 251.994 139.511 251.994 137.891C251.994 135.398 251.259 133.463 249.791 132.089C248.468 130.853 246.344 130.234 243.419 130.234H241.822Z" fill="#004B8D"/>
<path d="M155.016 162.662L151.536 165.587C150.314 163.967 149.07 163.158 147.803 163.158C147.187 163.158 146.682 163.317 146.29 163.637C145.898 163.946 145.702 164.298 145.702 164.692C145.702 165.086 145.842 165.459 146.122 165.811C146.503 166.28 147.652 167.287 149.569 168.832C151.362 170.26 152.449 171.161 152.83 171.534C153.783 172.45 154.456 173.33 154.848 174.172C155.251 175.003 155.453 175.914 155.453 176.905C155.453 178.834 154.753 180.427 153.352 181.685C151.95 182.942 150.123 183.571 147.871 183.571C146.111 183.571 144.575 183.161 143.264 182.34C141.964 181.52 140.848 180.23 139.918 178.472L143.869 176.202C145.057 178.28 146.425 179.319 147.971 179.319C148.778 179.319 149.457 179.095 150.006 178.647C150.555 178.2 150.83 177.683 150.83 177.097C150.83 176.564 150.622 176.031 150.208 175.498C149.793 174.965 148.879 174.15 147.467 173.053C144.777 170.964 143.04 169.355 142.255 168.225C141.47 167.085 141.078 165.95 141.078 164.82C141.078 163.19 141.728 161.793 143.028 160.632C144.34 159.46 145.954 158.873 147.871 158.873C149.103 158.873 150.275 159.145 151.384 159.689C152.505 160.232 153.716 161.223 155.016 162.662Z" fill="#004B8D"/>
<path d="M159.959 159.465H164.953C167.654 159.465 169.599 159.705 170.787 160.184C171.986 160.653 172.928 161.42 173.611 162.486C174.306 163.541 174.654 164.809 174.654 166.291C174.654 167.932 174.2 169.296 173.292 170.383C172.395 171.47 171.173 172.227 169.627 172.653C168.719 172.898 167.065 173.021 164.667 173.021V182.98H159.959V159.465ZM164.667 168.657H166.163C167.34 168.657 168.158 168.577 168.618 168.417C169.077 168.257 169.436 167.996 169.694 167.633C169.963 167.26 170.097 166.813 170.097 166.291C170.097 165.385 169.727 164.724 168.988 164.309C168.45 163.999 167.452 163.845 165.995 163.845H164.667V168.657Z" fill="#004B8D"/>
<path d="M179.294 159.465H192.795V163.845H183.968V168.097H192.795V172.397H183.968V178.584H192.795V182.98H179.294V159.465Z" fill="#004B8D"/>
<path d="M204.732 159.465H209.507L219.023 182.98H214.131L212.197 178.136H202.109L200.092 182.98H195.199L204.732 159.465ZM207.153 165.699L203.858 173.772H210.432L207.153 165.699Z" fill="#004B8D"/>
<path d="M222.722 159.465H227.48V167.554L234.189 159.465H239.855L231.213 169.951L240.695 182.98H235.113L227.48 172.541V182.98H222.722V159.465Z" fill="#004B8D"/>
<path d="M257.004 162.662L253.523 165.587C252.302 163.967 251.058 163.158 249.791 163.158C249.175 163.158 248.67 163.317 248.278 163.637C247.886 163.946 247.689 164.298 247.689 164.692C247.689 165.086 247.829 165.459 248.11 165.811C248.491 166.28 249.64 167.287 251.556 168.832C253.35 170.26 254.437 171.161 254.818 171.534C255.771 172.45 256.443 173.33 256.836 174.172C257.239 175.003 257.441 175.914 257.441 176.905C257.441 178.834 256.74 180.427 255.339 181.685C253.938 182.942 252.111 183.571 249.858 183.571C248.099 183.571 246.563 183.161 245.251 182.34C243.951 181.52 242.836 180.23 241.906 178.472L245.857 176.202C247.045 178.28 248.412 179.319 249.959 179.319C250.766 179.319 251.444 179.095 251.994 178.647C252.543 178.2 252.817 177.683 252.817 177.097C252.817 176.564 252.61 176.031 252.195 175.498C251.781 174.965 250.867 174.15 249.455 173.053C246.765 170.964 245.027 169.355 244.243 168.225C243.458 167.085 243.066 165.95 243.066 164.82C243.066 163.19 243.716 161.793 245.016 160.632C246.328 159.46 247.942 158.873 249.858 158.873C251.091 158.873 252.263 159.145 253.372 159.689C254.493 160.232 255.704 161.223 257.004 162.662Z" fill="#004B8D"/>
<path d="M142.07 193.011H155.571V197.391H146.744V201.644H155.571V205.944H146.744V212.13H155.571V216.526H142.07V193.011Z" fill="#004B8D"/>
<path d="M159.993 193.011H164.499L175.108 208.485V193.011H179.815V216.526H175.293L164.7 201.1V216.526H159.993V193.011Z" fill="#004B8D"/>
<path d="M208.296 196.848L204.984 199.965C202.888 197.855 200.445 196.8 197.654 196.8C195.222 196.8 193.182 197.567 191.534 199.102C189.897 200.637 189.079 202.501 189.079 204.697C189.079 206.967 189.931 208.89 191.635 210.468C193.339 212.045 195.44 212.833 197.94 212.833C199.565 212.833 200.932 212.508 202.042 211.858C203.163 211.208 204.065 210.19 204.749 208.805H197.587V204.601H210.028L210.062 205.592C210.062 207.649 209.501 209.599 208.381 211.443C207.26 213.286 205.808 214.693 204.026 215.663C202.244 216.633 200.153 217.118 197.755 217.118C195.188 217.118 192.896 216.59 190.878 215.535C188.872 214.469 187.28 212.956 186.103 210.995C184.938 209.034 184.355 206.919 184.355 204.649C184.355 201.537 185.436 198.83 187.6 196.528C190.166 193.789 193.507 192.42 197.62 192.42C199.772 192.42 201.784 192.798 203.656 193.555C205.237 194.194 206.783 195.292 208.296 196.848Z" fill="#004B8D"/>
<path d="M214.383 193.011H219.09V212.258H225.95V216.526H214.383V193.011Z" fill="#004B8D"/>
<path d="M229.212 193.011H233.886V216.526H229.212V193.011Z" fill="#004B8D"/>
<path d="M252.162 196.209L248.681 199.134C247.46 197.514 246.215 196.704 244.949 196.704C244.332 196.704 243.828 196.864 243.436 197.184C243.043 197.493 242.847 197.844 242.847 198.239C242.847 198.633 242.987 199.006 243.268 199.358C243.649 199.827 244.798 200.834 246.714 202.379C248.508 203.807 249.595 204.707 249.976 205.08C250.929 205.997 251.601 206.876 251.994 207.718C252.397 208.549 252.599 209.46 252.599 210.452C252.599 212.381 251.898 213.974 250.497 215.231C249.096 216.489 247.269 217.118 245.016 217.118C243.256 217.118 241.721 216.707 240.409 215.887C239.109 215.066 237.994 213.777 237.064 212.018L241.015 209.748C242.203 211.826 243.57 212.865 245.117 212.865C245.924 212.865 246.602 212.642 247.151 212.194C247.701 211.746 247.975 211.23 247.975 210.643C247.975 210.111 247.768 209.578 247.353 209.045C246.938 208.512 246.025 207.697 244.613 206.599C241.923 204.51 240.185 202.901 239.401 201.771C238.616 200.631 238.224 199.496 238.224 198.367C238.224 196.736 238.874 195.34 240.174 194.178C241.485 193.006 243.099 192.42 245.016 192.42C246.249 192.42 247.42 192.692 248.53 193.235C249.651 193.779 250.861 194.77 252.162 196.209Z" fill="#004B8D"/>
<path d="M257.105 193.011H261.88V201.883H270.152V193.011H274.91V216.526H270.152V206.215H261.88V216.526H257.105V193.011Z" fill="#004B8D"/>
<path d="M150.23 225.444L148.635 233.501H147.243L146.029 227.379L144.826 233.501H143.434L141.827 225.444H143.291L144.124 231.555L145.291 225.444H146.766L147.945 231.555L148.766 225.444H150.23Z" fill="#004B8D"/>
<path d="M153.419 233.501H152.085V225.444H153.419V233.501Z" fill="#004B8D"/>
<path d="M159.661 226.587H158.232V233.501H156.899V226.587H155.483V225.444H159.661V226.587Z" fill="#004B8D"/>
<path d="M166.036 233.501H164.702V229.982H163.048V233.501H161.715V225.444H163.048V228.839H164.702V225.444H166.036V233.501Z" fill="#004B8D"/>
<path d="M176.095 227.232C176.166 227.692 176.202 228.435 176.202 229.461C176.202 230.487 176.166 231.238 176.095 231.713C176.023 232.181 175.853 232.555 175.583 232.834C175.17 233.279 174.623 233.501 173.94 233.501H171.786V225.444H173.94C174.623 225.444 175.17 225.666 175.583 226.111C175.853 226.391 176.023 226.764 176.095 227.232ZM174.869 229.461C174.869 228.677 174.849 228.099 174.809 227.73C174.777 227.36 174.702 227.089 174.583 226.915C174.432 226.696 174.206 226.587 173.905 226.587H173.119V232.358H173.905C174.206 232.358 174.432 232.249 174.583 232.03C174.702 231.857 174.777 231.585 174.809 231.215C174.849 230.838 174.869 230.253 174.869 229.461Z" fill="#004B8D"/>
<path d="M183.222 233.501H181.829L181.484 231.906H179.52L179.187 233.501H177.782L179.865 225.444H181.163L183.222 233.501ZM181.234 230.763L180.508 227.39L179.782 230.763H181.234Z" fill="#004B8D"/>
<path d="M189.683 233.501H188.29L187.183 230.197H186.433V233.501H185.1V225.444H187.242C188.012 225.444 188.564 225.632 188.897 226.01C189.238 226.379 189.409 226.983 189.409 227.82C189.409 228.356 189.333 228.794 189.183 229.133C189.04 229.473 188.786 229.737 188.421 229.925L189.683 233.501ZM187.909 228.737C188.02 228.518 188.076 228.213 188.076 227.82C188.076 227.428 188.02 227.126 187.909 226.915C187.798 226.696 187.58 226.587 187.254 226.587H186.433V229.054H187.254C187.58 229.054 187.798 228.948 187.909 228.737Z" fill="#004B8D"/>
<path d="M193.212 233.501H191.879V225.444H193.212V233.501Z" fill="#004B8D"/>
<path d="M200.526 233.501H199.133L198.788 231.906H196.824L196.49 233.501H195.086L197.169 225.444H198.466L200.526 233.501ZM198.538 230.763L197.812 227.39L197.086 230.763H198.538Z" fill="#004B8D"/>
<path d="M206.915 233.501H205.736L203.737 228.714V233.501H202.403V225.444H203.594L205.581 230.231V225.444H206.915V233.501Z" fill="#004B8D"/>
<path d="M216.755 231.272C216.755 232.117 216.573 232.709 216.208 233.049C215.819 233.403 215.267 233.581 214.553 233.581C213.831 233.581 213.283 233.403 212.91 233.049C212.545 232.702 212.363 232.125 212.363 231.317H213.696C213.696 231.747 213.775 232.049 213.934 232.223C214.069 232.366 214.275 232.438 214.553 232.438C214.847 232.438 215.061 232.362 215.196 232.211C215.347 232.045 215.422 231.747 215.422 231.317C215.422 230.887 215.37 230.593 215.267 230.435C215.172 230.269 214.958 230.121 214.624 229.993L213.613 229.597C213.176 229.424 212.871 229.197 212.696 228.918C212.522 228.631 212.434 228.182 212.434 227.571C212.434 226.824 212.664 226.255 213.125 225.863C213.514 225.538 213.998 225.376 214.577 225.376C215.235 225.376 215.743 225.538 216.1 225.863C216.497 226.232 216.696 226.817 216.696 227.617H215.362C215.362 227.209 215.295 226.923 215.16 226.757C215.033 226.598 214.835 226.519 214.565 226.519C214.327 226.519 214.136 226.594 213.994 226.745C213.843 226.911 213.767 227.175 213.767 227.537C213.767 227.869 213.811 228.107 213.898 228.25C213.986 228.386 214.176 228.511 214.47 228.624L215.47 229.009C215.969 229.205 216.307 229.461 216.481 229.778C216.664 230.095 216.755 230.593 216.755 231.272Z" fill="#004B8D"/>
<path d="M223.806 233.501H222.413L222.068 231.906H220.104L219.771 233.501H218.366L220.449 225.444H221.747L223.806 233.501ZM221.818 230.763L221.092 227.39L220.366 230.763H221.818Z" fill="#004B8D"/>
<path d="M230.195 233.501H229.017L227.017 228.714V233.501H225.684V225.444H226.874L228.862 230.231V225.444H230.195V233.501Z" fill="#004B8D"/>
<path d="M237.028 227.232C237.099 227.692 237.135 228.435 237.135 229.461C237.135 230.487 237.099 231.238 237.028 231.713C236.956 232.181 236.786 232.555 236.516 232.834C236.103 233.279 235.556 233.501 234.873 233.501H232.719V225.444H234.873C235.556 225.444 236.103 225.666 236.516 226.111C236.786 226.391 236.956 226.764 237.028 227.232ZM235.802 229.461C235.802 228.677 235.782 228.099 235.742 227.73C235.71 227.36 235.635 227.089 235.516 226.915C235.365 226.696 235.139 226.587 234.838 226.587H234.052V232.358H234.838C235.139 232.358 235.365 232.249 235.516 232.03C235.635 231.857 235.71 231.585 235.742 231.215C235.782 230.838 235.802 230.253 235.802 229.461Z" fill="#004B8D"/>
<path d="M245.118 233.501H243.785V228.477L242.63 231.781H241.892L240.761 228.533V233.501H239.428V225.444H240.63L242.273 229.676L243.904 225.444H245.118V233.501Z" fill="#004B8D"/>
<path d="M252.422 233.501H251.029L250.684 231.906H248.72L248.387 233.501H246.982L249.065 225.444H250.363L252.422 233.501ZM250.434 230.763L249.708 227.39L248.982 230.763H250.434Z" fill="#004B8D"/>
<path d="M258.882 233.501H257.49L256.383 230.197H255.633V233.501H254.3V225.444H256.442C257.212 225.444 257.764 225.632 258.097 226.01C258.438 226.379 258.609 226.983 258.609 227.82C258.609 228.356 258.533 228.794 258.383 229.133C258.24 229.473 257.986 229.737 257.621 229.925L258.882 233.501ZM257.109 228.737C257.22 228.518 257.276 228.213 257.276 227.82C257.276 227.428 257.22 227.126 257.109 226.915C256.998 226.696 256.78 226.587 256.454 226.587H255.633V229.054H256.454C256.78 229.054 256.998 228.948 257.109 228.737Z" fill="#004B8D"/>
<path d="M264.49 226.587H263.062V233.501H261.729V226.587H260.313V225.444H264.49V226.587Z" fill="#004B8D"/>
<path d="M267.878 233.501H266.545V225.444H267.878V233.501Z" fill="#004B8D"/>
<path d="M274.917 233.501H273.739L271.739 228.714V233.501H270.406V225.444H271.596L273.584 230.231V225.444H274.917V233.501Z" fill="#004B8D"/>
<defs>
<filter id="filter0_b" x="15" y="50.9113" width="335" height="247.089" filterUnits="userSpaceOnUse" color-interpolation-filters="sRGB">
<feFlood flood-opacity="0" result="BackgroundImageFix"/>
<feGaussianBlur in="BackgroundImage" stdDeviation="10"/>
<feComposite in2="SourceAlpha" operator="in" result="effect1_backgroundBlur"/>
<feBlend mode="normal" in="SourceGraphic" in2="effect1_backgroundBlur" result="shape"/>
</filter>
<filter id="filter1_d" x="0.5625" y="0" width="459.324" height="407.089" filterUnits="userSpaceOnUse" color-interpolation-filters="sRGB">
<feFlood flood-opacity="0" result="BackgroundImageFix"/>
<feColorMatrix in="SourceAlpha" type="matrix" values="0 0 0 0 0 0 0 0 0 0 0 0 0 0 0 0 0 0 127 0" result="hardAlpha"/>
<feOffset dx="30" dy="30"/>
<feGaussianBlur stdDeviation="50"/>
<feColorMatrix type="matrix" values="0 0 0 0 0 0 0 0 0 0 0 0 0 0 0 0 0 0 0.4 0"/>
<feBlend mode="normal" in2="BackgroundImageFix" result="effect1_dropShadow"/>
<feBlend mode="normal" in="SourceGraphic" in2="effect1_dropShadow" result="shape"/>
</filter>
</defs>
</svg>
